<?xml version="1.0" standalone="no"?>
<!DOCTYPE svg PUBLIC "-//W3C//DTD SVG 20010904//EN"
 "http://www.w3.org/TR/2001/REC-SVG-20010904/DTD/svg10.dtd">
<svg version="1.0" xmlns="http://www.w3.org/2000/svg"
 width="1280.000000pt" height="1280.000000pt" viewBox="0 0 1280.000000 1280.000000"
 preserveAspectRatio="xMidYMid meet">

<g transform="translate(0.000000,1280.000000) scale(0.100000,-0.100000)"
fill="#000000" stroke="none">
<path d="M7134 10222 c-102 -38 -195 -117 -314 -267 -35 -44 -68 -84 -72 -90
-5 -5 -22 -28 -39 -50 -16 -22 -35 -47 -42 -55 -7 -8 -66 -87 -132 -175 -66
-88 -124 -165 -130 -171 -5 -6 -17 -21 -25 -33 -33 -48 -178 -242 -217 -289
-11 -15 -77 -101 -144 -192 -68 -91 -127 -169 -131 -175 -8 -9 -115 -151 -156
-205 -10 -14 -76 -101 -146 -195 -69 -93 -142 -190 -161 -215 -41 -54 -157
-205 -184 -240 -11 -14 -34 -46 -53 -71 -81 -113 -135 -185 -159 -213 -14 -17
-69 -89 -123 -161 -53 -71 -103 -137 -111 -147 -7 -9 -72 -94 -143 -190 -71
-95 -212 -281 -312 -413 -100 -132 -261 -346 -357 -475 -97 -129 -181 -240
-187 -245 -6 -6 -15 -18 -21 -27 -11 -17 -173 -234 -198 -264 -13 -16 -97
-126 -207 -274 -65 -87 -157 -209 -174 -231 -12 -14 -30 -38 -41 -53 -11 -16
-24 -33 -30 -40 -18 -20 -92 -130 -116 -171 -67 -119 -89 -191 -89 -300 0
-165 83 -274 245 -324 61 -19 280 -69 505 -116 69 -14 154 -33 190 -41 36 -7
207 -43 380 -79 173 -36 495 -104 715 -150 484 -101 1021 -214 1245 -260 91
-19 208 -44 260 -55 52 -11 158 -34 235 -50 311 -64 876 -182 1410 -295 226
-48 419 -88 430 -91 11 -2 43 -8 70 -14 327 -68 479 -87 570 -71 217 38 327
185 311 416 -5 87 -29 199 -76 355 -34 115 -267 877 -406 1330 -69 223 -138
448 -154 500 -16 52 -92 300 -169 550 -77 250 -201 655 -276 900 -75 245 -179
582 -230 750 -52 168 -146 476 -210 685 -64 209 -134 436 -155 505 -21 69 -73
238 -115 375 -166 544 -205 649 -267 728 -67 84 -190 117 -294 79z m72 -614
c83 -65 92 -85 234 -558 17 -58 40 -132 50 -165 11 -33 42 -136 70 -230 28
-93 63 -213 80 -265 16 -52 54 -178 84 -280 58 -193 233 -777 268 -890 11 -36
23 -78 28 -95 9 -33 61 -207 90 -300 10 -33 36 -121 58 -195 22 -74 79 -263
126 -420 48 -157 105 -346 127 -420 22 -74 49 -162 59 -195 10 -33 46 -152 79
-265 34 -113 73 -241 86 -285 86 -278 199 -656 207 -690 5 -22 13 -49 18 -60
13 -35 69 -236 90 -325 48 -207 11 -331 -120 -398 l-65 -34 -115 5 c-66 3
-181 18 -270 35 -287 56 -660 131 -1685 337 -561 113 -1155 232 -1320 265
-278 55 -1314 264 -1609 325 -248 51 -303 77 -348 164 -34 65 -37 131 -8 224
31 101 50 128 668 946 119 157 257 340 307 406 91 120 179 236 590 780 121
160 432 571 692 915 260 344 587 776 726 959 313 416 430 563 496 624 104 97
242 135 307 85z m-2766 -2934 c0 -10 5 -14 15 -10 8 3 21 9 29 12 9 3 16 -4
21 -23 3 -15 12 -32 18 -36 8 -6 6 -7 -5 -3 -15 4 -18 -1 -18 -25 0 -17 -10
-44 -21 -61 -12 -16 -32 -50 -46 -76 -13 -26 -38 -64 -54 -84 -16 -20 -29 -39
-29 -43 0 -7 -63 -97 -108 -155 -103 -132 -193 -216 -238 -223 -24 -4 -46 -16
-60 -34 -31 -39 -51 -20 -28 26 9 18 14 41 11 52 -3 10 -1 22 4 25 5 3 9 12 9
20 0 8 -5 12 -11 8 -19 -11 20 55 84 143 34 47 69 96 77 108 8 13 73 94 144
181 157 194 206 241 206 198z"/>
<path d="M6650 8641 c-231 -75 -332 -221 -389 -562 -32 -194 -147 -1072 -196
-1504 -29 -255 -30 -310 -10 -388 19 -73 50 -122 114 -179 71 -64 113 -82 192
-82 128 0 252 88 319 228 71 150 508 1713 541 1936 39 272 -65 487 -268 550
-84 26 -225 27 -303 1z"/>
<path d="M6053 5635 c-224 -61 -365 -243 -365 -475 0 -109 28 -198 85 -277
117 -158 273 -234 421 -203 291 60 476 396 376 684 -42 122 -137 228 -238 266
-64 24 -199 26 -279 5z"/>
</g>
</svg>
